<svg xmlns="http://www.w3.org/2000/svg" viewBox="0 0 252 752" role="img" aria-labelledby="t d">
  <title id="t">104 Glass Door Handle — dimensioned drawing</title>
  <desc id="d">Length 600mm, centre distance 149mm, tube Ø32mm. Drawn 1:1 from the published specification; unstated features are not shown.</desc>
  <style>
    .ink { stroke: #16150f; }
    text { fill: #16150f; }
    @media (prefers-color-scheme: dark) {
      path, line, circle { stroke: #e9e5da; }
      path[fill]:not([fill="none"]) { fill: #e9e5da; }
      text { fill: #e9e5da; }
    }
  </style>
  <g>
    <g transform="translate(76 76)">
      <path d="M68.00 0.00 L100.00 0.00 L100.00 600.00 L68.00 600.00 Z" fill="none" stroke="#16150f" stroke-width="1.6" stroke-linejoin="round"/>
    <path d="M0.00 208.50 L68.00 208.50 L68.00 242.50 L0.00 242.50 Z" fill="none" stroke="#16150f" stroke-width="1.6" stroke-linejoin="round"/>
    <path d="M0.00 357.50 L68.00 357.50 L68.00 391.50 L0.00 391.50 Z" fill="none" stroke="#16150f" stroke-width="1.6" stroke-linejoin="round"/>
    <line x1="-10.00" y1="225.50" x2="116.00" y2="225.50" stroke="#8e8a80" stroke-width="0.7" stroke-dasharray="14 3 3 3"/>
    <line x1="-10.00" y1="374.50" x2="116.00" y2="374.50" stroke="#8e8a80" stroke-width="0.7" stroke-dasharray="14 3 3 3"/>
    <line x1="103" y1="0" x2="134" y2="0" stroke="#8e8a80" stroke-width="0.7"/>
    <line x1="103" y1="600" x2="134" y2="600" stroke="#8e8a80" stroke-width="0.7"/>
    <line x1="130" y1="0" x2="130" y2="292.3" stroke="#16150f" stroke-width="0.7"/>
    <line x1="130" y1="307.7" x2="130" y2="600" stroke="#16150f" stroke-width="0.7"/>
    <path d="M130.00 0.00 L128.82 4.20 L131.18 4.20 Z" fill="#16150f"/>
    <path d="M130.00 600.00 L131.18 595.80 L128.82 595.80 Z" fill="#16150f"/>
    <text x="130" y="300" font-size="11" fill="#16150f" text-anchor="middle" dominant-baseline="central" transform="rotate(-90 130 300)" font-family="'Archivo','Helvetica Neue',Arial,sans-serif">600</text>
    <line x1="-3" y1="225.5" x2="-30" y2="225.5" stroke="#8e8a80" stroke-width="0.7"/>
    <line x1="-3" y1="374.5" x2="-30" y2="374.5" stroke="#8e8a80" stroke-width="0.7"/>
    <line x1="-26" y1="225.5" x2="-26" y2="292.3" stroke="#16150f" stroke-width="0.7"/>
    <line x1="-26" y1="307.7" x2="-26" y2="374.5" stroke="#16150f" stroke-width="0.7"/>
    <path d="M-26.00 225.50 L-27.18 229.70 L-24.82 229.70 Z" fill="#16150f"/>
    <path d="M-26.00 374.50 L-24.82 370.30 L-27.18 370.30 Z" fill="#16150f"/>
    <text x="-26" y="300" font-size="11" fill="#16150f" text-anchor="middle" dominant-baseline="central" transform="rotate(-90 -26 300)" font-family="'Archivo','Helvetica Neue',Arial,sans-serif">149</text>
    <line x1="84" y1="84.00000000000001" x2="160.8" y2="48" stroke="#8e8a80" stroke-width="0.7"/>
    <circle cx="84" cy="84.00000000000001" r="1.6" fill="#16150f"/>
    <text x="164.8" y="48" font-size="11" fill="#16150f" text-anchor="start" dominant-baseline="central" font-family="'Archivo','Helvetica Neue',Arial,sans-serif">Ø32</text>
    <line x1="0" y1="603" x2="0" y2="626" stroke="#8e8a80" stroke-width="0.7"/>
    <line x1="68" y1="603" x2="68" y2="626" stroke="#8e8a80" stroke-width="0.7"/>
    <line x1="0" y1="622" x2="23.84" y2="622" stroke="#16150f" stroke-width="0.7"/>
    <line x1="44.16" y1="622" x2="68" y2="622" stroke="#16150f" stroke-width="0.7"/>
    <path d="M0.00 622.00 L4.20 623.18 L4.20 620.82 Z" fill="#16150f"/>
    <path d="M68.00 622.00 L63.80 620.82 L63.80 623.18 Z" fill="#16150f"/>
    <text x="34" y="625.85" font-size="11" fill="#16150f" text-anchor="middle" font-family="'Archivo','Helvetica Neue',Arial,sans-serif">68</text>
    </g>
    <text x="76" y="730" font-size="10" fill="#8e8a80" font-family="'Archivo','Helvetica Neue',Arial,sans-serif">All dimensions in millimetres</text>
  </g>
</svg>
