<svg xmlns="http://www.w3.org/2000/svg" viewBox="0 0 252 252" role="img" aria-labelledby="t d">
  <title id="t">5689 Night Latch And Rim Lock — dimensioned drawing</title>
  <desc id="d">Case 100 × 100mm, backset 60mm, bolt throw 25mm. Drawn 1:1 from the published specification; unstated features are not shown.</desc>
  <style>
    .ink { stroke: #16150f; }
    text { fill: #16150f; }
    @media (prefers-color-scheme: dark) {
      path, line, circle { stroke: #e9e5da; }
      path[fill]:not([fill="none"]) { fill: #e9e5da; }
      text { fill: #e9e5da; }
    }
  </style>
  <g>
    <g transform="translate(76 76)">
      <path d="M0.00 0.00 L100.00 0.00 L100.00 100.00 L0.00 100.00 Z" fill="none" stroke="#16150f" stroke-width="1.6" stroke-linejoin="round"/>
    <path d="M-25.00 42.00 L0.00 42.00 L0.00 58.00 L-25.00 58.00 Z" fill="none" stroke="#16150f" stroke-width="0.7" stroke-linejoin="round"/>
    <line x1="60.00" y1="-10.00" x2="60.00" y2="110.00" stroke="#8e8a80" stroke-width="0.7" stroke-dasharray="14 3 3 3"/>
    <line x1="-10.00" y1="50.00" x2="110.00" y2="50.00" stroke="#8e8a80" stroke-width="0.7" stroke-dasharray="14 3 3 3"/>
    <circle cx="60.00" cy="50.00" r="15.00" fill="none" stroke="#16150f" stroke-width="0.7"/>
    <line x1="0" y1="103" x2="0" y2="128" stroke="#8e8a80" stroke-width="0.7"/>
    <line x1="60" y1="103" x2="60" y2="128" stroke="#8e8a80" stroke-width="0.7"/>
    <line x1="0" y1="124" x2="19.84" y2="124" stroke="#16150f" stroke-width="0.7"/>
    <line x1="40.16" y1="124" x2="60" y2="124" stroke="#16150f" stroke-width="0.7"/>
    <path d="M0.00 124.00 L4.20 125.18 L4.20 122.82 Z" fill="#16150f"/>
    <path d="M60.00 124.00 L55.80 122.82 L55.80 125.18 Z" fill="#16150f"/>
    <text x="30" y="127.85" font-size="11" fill="#16150f" text-anchor="middle" font-family="'Archivo','Helvetica Neue',Arial,sans-serif">60</text>
    <line x1="0" y1="103" x2="0" y2="156" stroke="#8e8a80" stroke-width="0.7"/>
    <line x1="100" y1="103" x2="100" y2="156" stroke="#8e8a80" stroke-width="0.7"/>
    <line x1="0" y1="152" x2="36.76" y2="152" stroke="#16150f" stroke-width="0.7"/>
    <line x1="63.24" y1="152" x2="100" y2="152" stroke="#16150f" stroke-width="0.7"/>
    <path d="M0.00 152.00 L4.20 153.18 L4.20 150.82 Z" fill="#16150f"/>
    <path d="M100.00 152.00 L95.80 150.82 L95.80 153.18 Z" fill="#16150f"/>
    <text x="50" y="155.85" font-size="11" fill="#16150f" text-anchor="middle" font-family="'Archivo','Helvetica Neue',Arial,sans-serif">100</text>
    <line x1="103" y1="0" x2="130" y2="0" stroke="#8e8a80" stroke-width="0.7"/>
    <line x1="103" y1="100" x2="130" y2="100" stroke="#8e8a80" stroke-width="0.7"/>
    <line x1="126" y1="0" x2="126" y2="42.3" stroke="#16150f" stroke-width="0.7"/>
    <line x1="126" y1="57.7" x2="126" y2="100" stroke="#16150f" stroke-width="0.7"/>
    <path d="M126.00 0.00 L124.82 4.20 L127.18 4.20 Z" fill="#16150f"/>
    <path d="M126.00 100.00 L127.18 95.80 L124.82 95.80 Z" fill="#16150f"/>
    <text x="126" y="50" font-size="11" fill="#16150f" text-anchor="middle" dominant-baseline="central" transform="rotate(-90 126 50)" font-family="'Archivo','Helvetica Neue',Arial,sans-serif">100</text>
    <line x1="-25" y1="39" x2="-25" y2="-34" stroke="#8e8a80" stroke-width="0.7"/>
    <line x1="0" y1="39" x2="0" y2="-34" stroke="#8e8a80" stroke-width="0.7"/>
    <line x1="-25" y1="-30" x2="-22.66" y2="-30" stroke="#16150f" stroke-width="0.7"/>
    <line x1="-2.34" y1="-30" x2="0" y2="-30" stroke="#16150f" stroke-width="0.7"/>
    <path d="M-25.00 -30.00 L-20.80 -28.82 L-20.80 -31.18 Z" fill="#16150f"/>
    <path d="M0.00 -30.00 L-4.20 -31.18 L-4.20 -28.82 Z" fill="#16150f"/>
    <text x="-12.5" y="-26.15" font-size="11" fill="#16150f" text-anchor="middle" font-family="'Archivo','Helvetica Neue',Arial,sans-serif">25</text>
    </g>
    <text x="76" y="230" font-size="10" fill="#8e8a80" font-family="'Archivo','Helvetica Neue',Arial,sans-serif">All dimensions in millimetres</text>
  </g>
</svg>
